<svg xmlns="http://www.w3.org/2000/svg" viewBox="0 0 202 202"><path fill-rule="evenodd" fill="#fff" clip-rule="evenodd" d="M102 1C46.9 1 2 45.9 2 101s44.9 100 100 100 100-44.9 100-100S157.1 1 102 1zm11.1 156.5H88.9v-23.8h24.3v23.8zm25-71c-1.3 3.2-2.9 5.9-4.8 8.2-1.9 2.3-4 4.2-6.3 5.8-2.3 1.6-4.5 3.2-6.6 4.8-2.1 1.6-3.9 3.4-5.5 5.5s-2.6 4.6-3 7.7v5.9H91v-7c.3-4.4 1.2-8.1 2.6-11.1 1.4-3 3-5.5 4.9-7.6 1.9-2.1 3.8-3.9 5.9-5.5 2.1-1.5 4-3.1 5.7-4.6 1.7-1.5 3.2-3.2 4.2-5.1 1.1-1.9 1.6-4.2 1.5-7 0-4.7-1.2-8.2-3.5-10.5-2.3-2.3-5.5-3.4-9.7-3.4-2.8 0-5.2.5-7.2 1.6s-3.7 2.5-4.9 4.3c-1.3 1.8-2.2 3.9-2.9 6.3-.6 2.4-.9 5-.9 7.8H64c.1-5.6 1.1-10.7 2.9-15.3 1.8-4.6 4.3-8.7 7.6-12.1 3.2-3.4 7.2-6.1 11.7-8 4.6-1.9 9.7-2.9 15.4-2.9 7.3 0 13.4 1 18.3 3s8.8 4.5 11.8 7.5 5.1 6.2 6.4 9.7c1.3 3.5 1.9 6.7 1.9 9.7 0 5.1-.6 9.2-1.9 12.3z"/></svg>